<mxfile host="Electron" agent="Mozilla/5.0 (Windows NT 10.0; Win64; x64) AppleWebKit/537.36 (KHTML, like Gecko) draw.io/24.7.8 Chrome/128.0.6613.36 Electron/32.0.1 Safari/537.36" version="24.7.8">
  <diagram name="Страница — 1" id="aSmwFiJve_g3QKgDSOCw">
    <mxGraphModel dx="1151" dy="682" grid="1" gridSize="10" guides="0" tooltips="1" connect="1" arrows="1" fold="1" page="1" pageScale="1" pageWidth="3300" pageHeight="4681" math="0" shadow="0">
      <root>
        <mxCell id="0" />
        <mxCell id="1" parent="0" />
        <mxCell id="ebBe6X_wC_6s3DEuy227-1" value="" style="rounded=0;whiteSpace=wrap;html=1;fontFamily=Georgia;fontColor=#796aaf;" vertex="1" parent="1">
          <mxGeometry x="305" y="305" width="290" height="140" as="geometry" />
        </mxCell>
        <mxCell id="ebBe6X_wC_6s3DEuy227-3" value="&lt;h1 style=&quot;margin-top: 0px;&quot;&gt;Пользователь&lt;/h1&gt;&lt;div&gt;id пользователя, список используемых документов&lt;/div&gt;" style="text;html=1;whiteSpace=wrap;overflow=hidden;rounded=0;" vertex="1" parent="1">
          <mxGeometry x="313" y="310" width="280" height="120" as="geometry" />
        </mxCell>
        <mxCell id="ebBe6X_wC_6s3DEuy227-4" value="" style="rounded=0;whiteSpace=wrap;html=1;" vertex="1" parent="1">
          <mxGeometry x="820" y="310" width="230" height="130" as="geometry" />
        </mxCell>
        <mxCell id="ebBe6X_wC_6s3DEuy227-6" value="&lt;h1 style=&quot;margin-top: 0px;&quot;&gt;Документ&lt;/h1&gt;&lt;div&gt;id документа, список пользователей, содержание докумета&lt;/div&gt;" style="text;html=1;whiteSpace=wrap;overflow=hidden;rounded=0;" vertex="1" parent="1">
          <mxGeometry x="830" y="315" width="210" height="120" as="geometry" />
        </mxCell>
        <mxCell id="ebBe6X_wC_6s3DEuy227-7" value="" style="rounded=0;whiteSpace=wrap;html=1;" vertex="1" parent="1">
          <mxGeometry x="600" y="570" width="310" height="140" as="geometry" />
        </mxCell>
        <mxCell id="ebBe6X_wC_6s3DEuy227-8" value="&lt;h1 style=&quot;margin-top: 0px;&quot;&gt;Список пользователей документа&lt;/h1&gt;&lt;div&gt;id читателей и редакторов, id связанного докумета&lt;/div&gt;" style="text;html=1;whiteSpace=wrap;overflow=hidden;rounded=0;" vertex="1" parent="1">
          <mxGeometry x="605" y="585" width="300" height="115" as="geometry" />
        </mxCell>
        <mxCell id="ebBe6X_wC_6s3DEuy227-14" value="содержит информацию о" style="text;html=1;align=center;verticalAlign=middle;whiteSpace=wrap;rounded=0;" vertex="1" parent="1">
          <mxGeometry x="570" y="520" width="100" height="30" as="geometry" />
        </mxCell>
        <mxCell id="ebBe6X_wC_6s3DEuy227-16" value="создает, читает и редактирует, имеет доступ к&amp;nbsp;" style="text;html=1;align=center;verticalAlign=middle;whiteSpace=wrap;rounded=0;" vertex="1" parent="1">
          <mxGeometry x="600" y="340" width="170" height="30" as="geometry" />
        </mxCell>
        <mxCell id="ebBe6X_wC_6s3DEuy227-17" value="привязан к&amp;nbsp;" style="text;html=1;align=center;verticalAlign=middle;whiteSpace=wrap;rounded=0;" vertex="1" parent="1">
          <mxGeometry x="920" y="540" width="60" height="30" as="geometry" />
        </mxCell>
        <mxCell id="ebBe6X_wC_6s3DEuy227-21" value="указан в&amp;nbsp;" style="text;html=1;align=center;verticalAlign=middle;whiteSpace=wrap;rounded=0;" vertex="1" parent="1">
          <mxGeometry x="400" y="445" width="60" height="30" as="geometry" />
        </mxCell>
        <mxCell id="ebBe6X_wC_6s3DEuy227-24" value="имеет при себе" style="text;html=1;align=center;verticalAlign=middle;whiteSpace=wrap;rounded=0;" vertex="1" parent="1">
          <mxGeometry x="880" y="450" width="60" height="30" as="geometry" />
        </mxCell>
        <mxCell id="ebBe6X_wC_6s3DEuy227-25" value="" style="rounded=0;whiteSpace=wrap;html=1;" vertex="1" parent="1">
          <mxGeometry x="300" y="130" width="330" height="120" as="geometry" />
        </mxCell>
        <mxCell id="ebBe6X_wC_6s3DEuy227-27" value="&lt;h1 style=&quot;margin-top: 0px;&quot;&gt;Список используемых документов пользователя&lt;/h1&gt;&lt;div&gt;их id. время последнего использования&lt;/div&gt;" style="text;html=1;whiteSpace=wrap;overflow=hidden;rounded=0;" vertex="1" parent="1">
          <mxGeometry x="305" y="130" width="325" height="120" as="geometry" />
        </mxCell>
        <mxCell id="ebBe6X_wC_6s3DEuy227-30" value="привязан к" style="text;html=1;align=center;verticalAlign=middle;whiteSpace=wrap;rounded=0;" vertex="1" parent="1">
          <mxGeometry x="470" y="250" width="80" height="30" as="geometry" />
        </mxCell>
        <mxCell id="ebBe6X_wC_6s3DEuy227-32" value="указан в" style="text;html=1;align=center;verticalAlign=middle;whiteSpace=wrap;rounded=0;" vertex="1" parent="1">
          <mxGeometry x="870" y="260" width="60" height="30" as="geometry" />
        </mxCell>
        <mxCell id="ebBe6X_wC_6s3DEuy227-34" value="содержит информацию о" style="text;html=1;align=center;verticalAlign=middle;whiteSpace=wrap;rounded=0;" vertex="1" parent="1">
          <mxGeometry x="654" y="175" width="60" height="30" as="geometry" />
        </mxCell>
        <mxCell id="ebBe6X_wC_6s3DEuy227-49" value="" style="endArrow=none;html=1;rounded=0;exitX=0.5;exitY=1;exitDx=0;exitDy=0;entryX=0.476;entryY=-0.02;entryDx=0;entryDy=0;entryPerimeter=0;" edge="1" parent="1" source="ebBe6X_wC_6s3DEuy227-27" target="ebBe6X_wC_6s3DEuy227-3">
          <mxGeometry relative="1" as="geometry">
            <mxPoint x="430" y="260" as="sourcePoint" />
            <mxPoint x="450" y="300" as="targetPoint" />
          </mxGeometry>
        </mxCell>
        <mxCell id="ebBe6X_wC_6s3DEuy227-61" value="" style="endArrow=none;html=1;rounded=0;entryX=0.59;entryY=1.007;entryDx=0;entryDy=0;entryPerimeter=0;exitX=1;exitY=0;exitDx=0;exitDy=0;" edge="1" parent="1" source="ebBe6X_wC_6s3DEuy227-7" target="ebBe6X_wC_6s3DEuy227-4">
          <mxGeometry relative="1" as="geometry">
            <mxPoint x="640" y="450" as="sourcePoint" />
            <mxPoint x="800" y="450" as="targetPoint" />
          </mxGeometry>
        </mxCell>
        <mxCell id="ebBe6X_wC_6s3DEuy227-64" value="" style="fontSize=12;html=1;endArrow=ERmany;rounded=0;exitX=0.598;exitY=1.009;exitDx=0;exitDy=0;entryX=0;entryY=0;entryDx=0;entryDy=0;exitPerimeter=0;dashed=1;" edge="1" parent="1" source="ebBe6X_wC_6s3DEuy227-1" target="ebBe6X_wC_6s3DEuy227-7">
          <mxGeometry width="100" height="100" relative="1" as="geometry">
            <mxPoint x="670" y="500" as="sourcePoint" />
            <mxPoint x="770" y="400" as="targetPoint" />
          </mxGeometry>
        </mxCell>
        <mxCell id="ebBe6X_wC_6s3DEuy227-65" value="" style="fontSize=12;html=1;endArrow=ERmany;rounded=0;exitX=0.25;exitY=0;exitDx=0;exitDy=0;entryX=1;entryY=0.5;entryDx=0;entryDy=0;dashed=1;" edge="1" parent="1" source="ebBe6X_wC_6s3DEuy227-4" target="ebBe6X_wC_6s3DEuy227-27">
          <mxGeometry width="100" height="100" relative="1" as="geometry">
            <mxPoint x="670" y="240" as="sourcePoint" />
            <mxPoint x="792" y="364" as="targetPoint" />
          </mxGeometry>
        </mxCell>
        <mxCell id="ebBe6X_wC_6s3DEuy227-67" value="" style="edgeStyle=entityRelationEdgeStyle;fontSize=12;html=1;endArrow=ERmany;startArrow=ERmany;rounded=0;exitX=1.016;exitY=0.683;exitDx=0;exitDy=0;exitPerimeter=0;entryX=-0.005;entryY=0.638;entryDx=0;entryDy=0;entryPerimeter=0;" edge="1" parent="1">
          <mxGeometry width="100" height="100" relative="1" as="geometry">
            <mxPoint x="597.48" y="380.00000000000006" as="sourcePoint" />
            <mxPoint x="818.8499999999999" y="380.9800000000001" as="targetPoint" />
          </mxGeometry>
        </mxCell>
      </root>
    </mxGraphModel>
  </diagram>
</mxfile>
